<?xml version="1.0" standalone="no"?>
<!DOCTYPE svg PUBLIC "-//W3C//DTD SVG 20010904//EN"
 "http://www.w3.org/TR/2001/REC-SVG-20010904/DTD/svg10.dtd">
<svg version="1.0" xmlns="http://www.w3.org/2000/svg"
 width="200.000000pt" height="200.000000pt" viewBox="0 0 200.000000 200.000000"
 preserveAspectRatio="xMidYMid meet">

<g transform="translate(0.000000,200.000000) scale(0.100000,-0.100000)"
fill="#000000" stroke="none">
<path d="M1653 643 c-30 -61 -50 -76 -123 -91 -48 -9 -47 -10 34 -27 31 -6 37
-25 27 -83 -5 -26 -8 -49 -6 -51 2 -1 17 24 33 56 31 61 59 82 110 84 15 0 36
4 47 8 16 6 12 9 -20 15 -85 15 -90 22 -75 93 6 25 9 48 6 50 -2 2 -17 -22
-33 -54z"/>
<path d="M837 620 c-20 -48 -23 -50 -59 -50 -43 0 -51 -15 -13 -24 36 -9 33
-35 -20 -176 -25 -67 -45 -125 -45 -130 0 -6 37 -10 83 -10 l83 0 37 108 c52
147 75 191 104 198 13 4 26 4 29 1 3 -2 -20 -71 -51 -152 -31 -81 -54 -149
-53 -150 2 -2 94 -5 205 -7 200 -3 201 -3 227 21 29 27 91 175 101 241 6 39 3
48 -15 65 -26 24 -142 33 -191 16 -18 -6 -34 -9 -36 -7 -2 2 3 21 12 42 24 57
17 64 -68 64 l-74 0 -21 -50 c-19 -45 -24 -50 -51 -50 -17 0 -31 2 -31 4 0 2
6 22 14 44 8 22 12 43 9 46 -4 3 -40 6 -81 6 l-74 0 -21 -50z m468 -90 c7 -23
-26 -131 -62 -203 -17 -35 -34 -53 -58 -63 -39 -16 -145 -19 -145 -4 0 6 10
10 23 10 40 0 57 22 97 130 42 110 72 150 115 150 15 0 26 -7 30 -20z"/>
<path d="M363 573 c-37 -5 -73 -44 -73 -79 0 -23 3 -24 80 -24 l80 0 14 35
c10 22 24 37 40 41 52 13 70 -15 45 -70 -11 -23 -15 -24 -128 -27 -136 -5
-162 -16 -191 -82 -32 -74 -34 -103 -9 -128 21 -21 25 -22 213 -15 105 4 194
11 198 14 10 10 98 264 98 284 0 38 -41 49 -192 53 -79 2 -158 1 -175 -2z
m157 -157 c0 -7 -7 -33 -15 -56 -21 -61 -19 -79 13 -93 25 -11 24 -12 -33 -15
-85 -4 -105 2 -105 36 1 38 33 106 61 126 29 20 79 21 79 2z"/>
</g>
</svg>
